<svg xmlns="http://www.w3.org/2000/svg" xmlns:xlink="http://www.w3.org/1999/xlink" width="1080" zoomAndPan="magnify" viewBox="0 0 810 809.999993" height="1080" preserveAspectRatio="xMidYMid meet" version="1.0"><defs><clipPath id="9c1bac1aed"><path d="M 0 0.515625 L 810 0.515625 L 810 810 L 0 810 Z M 0 0.515625 " clip-rule="nonzero"/></clipPath></defs><path fill="#000000" d="M 583.785156 455.332031 L 583.785156 578.160156 L 507.699219 578.160156 L 507.699219 455.332031 C 507.699219 437.589844 507.699219 394.597656 468.804688 394.597656 C 424.449219 394.597656 422.058594 439.292969 422.058594 439.292969 L 422.058594 578.503906 L 345.632812 578.503906 L 345.632812 332.5 L 422.058594 332.5 L 422.058594 366.277344 C 440.144531 329.429688 476.992188 326.699219 501.21875 326.699219 C 528.855469 326.699219 553.421875 337.277344 567.75 361.160156 C 580.035156 381.289062 583.785156 409.949219 583.785156 455.332031 Z M 583.785156 455.332031 " fill-opacity="1" fill-rule="nonzero"/><path fill="#000000" d="M 314.925781 255.046875 C 314.925781 256.5 314.851562 257.949219 314.710938 259.394531 C 314.566406 260.839844 314.355469 262.277344 314.070312 263.703125 C 313.789062 265.125 313.4375 266.535156 313.015625 267.921875 C 312.59375 269.3125 312.105469 270.679688 311.546875 272.023438 C 310.992188 273.363281 310.371094 274.675781 309.6875 275.957031 C 309 277.238281 308.257812 278.484375 307.449219 279.691406 C 306.640625 280.898438 305.777344 282.0625 304.855469 283.1875 C 303.933594 284.308594 302.960938 285.386719 301.933594 286.410156 C 300.90625 287.4375 299.832031 288.414062 298.707031 289.335938 C 297.585938 290.257812 296.417969 291.121094 295.210938 291.929688 C 294.003906 292.734375 292.757812 293.480469 291.476562 294.164062 C 290.195312 294.851562 288.886719 295.472656 287.542969 296.027344 C 286.199219 296.582031 284.835938 297.070312 283.445312 297.492188 C 282.054688 297.914062 280.648438 298.269531 279.222656 298.550781 C 277.796875 298.835938 276.363281 299.046875 274.917969 299.191406 C 273.46875 299.332031 272.019531 299.402344 270.570312 299.402344 C 269.117188 299.402344 267.667969 299.332031 266.222656 299.191406 C 264.773438 299.046875 263.339844 298.835938 261.914062 298.550781 C 260.492188 298.269531 259.082031 297.914062 257.691406 297.492188 C 256.304688 297.070312 254.9375 296.582031 253.59375 296.027344 C 252.253906 295.472656 250.941406 294.851562 249.660156 294.164062 C 248.378906 293.480469 247.132812 292.734375 245.925781 291.929688 C 244.71875 291.121094 243.554688 290.257812 242.429688 289.335938 C 241.308594 288.414062 240.230469 287.4375 239.203125 286.410156 C 238.175781 285.386719 237.203125 284.308594 236.28125 283.1875 C 235.359375 282.0625 234.496094 280.898438 233.6875 279.691406 C 232.882812 278.484375 232.136719 277.238281 231.449219 275.957031 C 230.765625 274.675781 230.144531 273.363281 229.589844 272.023438 C 229.035156 270.679688 228.542969 269.3125 228.125 267.921875 C 227.703125 266.535156 227.347656 265.125 227.066406 263.703125 C 226.78125 262.277344 226.570312 260.839844 226.425781 259.394531 C 226.285156 257.949219 226.214844 256.5 226.214844 255.046875 C 226.214844 253.59375 226.285156 252.144531 226.425781 250.699219 C 226.570312 249.253906 226.78125 247.820312 227.066406 246.394531 C 227.347656 244.96875 227.703125 243.5625 228.125 242.171875 C 228.542969 240.78125 229.035156 239.414062 229.589844 238.074219 C 230.144531 236.730469 230.765625 235.421875 231.449219 234.140625 C 232.136719 232.859375 232.882812 231.613281 233.6875 230.40625 C 234.496094 229.199219 235.359375 228.03125 236.28125 226.910156 C 237.203125 225.785156 238.175781 224.710938 239.203125 223.683594 C 240.230469 222.65625 241.308594 221.683594 242.429688 220.761719 C 243.554688 219.839844 244.71875 218.976562 245.925781 218.167969 C 247.132812 217.359375 248.378906 216.613281 249.660156 215.929688 C 250.941406 215.246094 252.253906 214.625 253.59375 214.070312 C 254.9375 213.511719 256.304688 213.023438 257.691406 212.601562 C 259.082031 212.179688 260.492188 211.828125 261.914062 211.542969 C 263.339844 211.261719 264.773438 211.046875 266.222656 210.90625 C 267.667969 210.761719 269.117188 210.691406 270.570312 210.691406 C 272.019531 210.691406 273.46875 210.761719 274.917969 210.90625 C 276.363281 211.046875 277.796875 211.261719 279.222656 211.542969 C 280.648438 211.828125 282.054688 212.179688 283.445312 212.601562 C 284.835938 213.023438 286.199219 213.511719 287.542969 214.070312 C 288.886719 214.625 290.195312 215.246094 291.476562 215.929688 C 292.757812 216.613281 294.003906 217.359375 295.210938 218.167969 C 296.417969 218.976562 297.585938 219.839844 298.707031 220.761719 C 299.832031 221.683594 300.90625 222.65625 301.933594 223.683594 C 302.960938 224.710938 303.933594 225.785156 304.855469 226.910156 C 305.777344 228.03125 306.640625 229.199219 307.449219 230.40625 C 308.257812 231.613281 309 232.859375 309.6875 234.140625 C 310.371094 235.421875 310.992188 236.730469 311.546875 238.074219 C 312.105469 239.414062 312.59375 240.78125 313.015625 242.171875 C 313.4375 243.5625 313.789062 244.96875 314.070312 246.394531 C 314.355469 247.820312 314.566406 249.253906 314.710938 250.699219 C 314.851562 252.144531 314.925781 253.59375 314.925781 255.046875 Z M 314.925781 255.046875 " fill-opacity="1" fill-rule="nonzero"/><path fill="#000000" d="M 232.695312 332.5 L 308.78125 332.5 L 308.78125 578.503906 L 232.695312 578.503906 Z M 232.695312 332.5 " fill-opacity="1" fill-rule="nonzero"/><g clip-path="url(#9c1bac1aed)"><path fill="#000000" d="M 405 810.515625 C 181.859375 810.515625 0 629 0 405.515625 C 0 182.03125 181.859375 0.515625 405 0.515625 C 628.140625 0.515625 810 182.375 810 405.515625 C 810 628.65625 628.484375 810.515625 405 810.515625 Z M 405 22.691406 C 193.800781 22.691406 22.179688 194.316406 22.179688 405.515625 C 22.179688 616.714844 193.800781 788.335938 405 788.335938 C 616.199219 788.335938 787.820312 616.714844 787.820312 405.515625 C 787.820312 194.316406 616.199219 22.691406 405 22.691406 Z M 405 22.691406 " fill-opacity="1" fill-rule="nonzero"/></g></svg>