<svg xmlns="http://www.w3.org/2000/svg" xmlns:xlink="http://www.w3.org/1999/xlink" width="1080" zoomAndPan="magnify" viewBox="0 0 810 809.999993" height="1080" preserveAspectRatio="xMidYMid meet" version="1.0"><defs><clipPath id="61ef4c4eeb"><path d="M 0 0 L 809.351562 0 L 809.351562 809.351562 L 0 809.351562 Z M 0 0 " clip-rule="nonzero"/></clipPath></defs><g clip-path="url(#61ef4c4eeb)"><path fill="#000000" d="M 404.675781 809.351562 C 296.632812 809.351562 194.898438 767.300781 118.554688 690.796875 C 42.050781 614.453125 0 512.71875 0 404.675781 C 0 296.632812 42.050781 194.898438 118.554688 118.554688 C 194.898438 42.050781 296.632812 0 404.675781 0 C 512.71875 0 614.453125 42.050781 690.796875 118.554688 C 767.300781 195.058594 809.351562 296.632812 809.351562 404.675781 C 809.351562 512.71875 767.300781 614.453125 690.796875 690.796875 C 614.453125 767.300781 512.71875 809.351562 404.675781 809.351562 Z M 404.675781 24.261719 C 303.101562 24.261719 207.515625 63.886719 135.699219 135.699219 C 63.886719 207.515625 24.261719 303.101562 24.261719 404.675781 C 24.261719 506.25 63.886719 601.839844 135.699219 673.652344 C 207.515625 745.464844 303.101562 785.089844 404.675781 785.089844 C 506.25 785.089844 601.839844 745.464844 673.652344 673.652344 C 745.464844 601.839844 785.089844 506.25 785.089844 404.675781 C 785.089844 303.101562 745.464844 207.515625 673.652344 135.699219 C 601.839844 63.886719 506.25 24.261719 404.675781 24.261719 Z M 404.675781 24.261719 " fill-opacity="1" fill-rule="nonzero"/></g><path stroke-linecap="butt" transform="matrix(0.000000000000002478, 40.467005, -40.499998, 0.00000000000000248, 642.073675, 232.359383)" fill="none" stroke-linejoin="miter" d="M -0.000000190533 -0.000013421 L 8.525464 -0.000013421 " stroke="#000000" stroke-width="1" stroke-opacity="1" stroke-miterlimit="4"/><path stroke-linecap="butt" transform="matrix(0.000000000000002478, 40.467005, -40.499998, 0.00000000000000248, 167.92517, 232.359383)" fill="none" stroke-linejoin="miter" d="M -0.000000190533 -0.0000150864 L 8.525464 -0.0000150864 " stroke="#000000" stroke-width="1" stroke-opacity="1" stroke-miterlimit="4"/><path stroke-linecap="butt" transform="matrix(40.488932, 0, 0, 40.499998, 147.675728, 252.608914)" fill="none" stroke-linejoin="miter" d="M 0.00000131343 0.0000113903 L 12.707371 0.0000113903 " stroke="#000000" stroke-width="1" stroke-opacity="1" stroke-miterlimit="4"/><path stroke-linecap="butt" transform="matrix(-40.488932, -0.000000000000004958, 0.00000000000000496, -40.499998, 662.316354, 557.391088)" fill="none" stroke-linejoin="miter" d="M -0.00000128604 0.0000114311 L 12.707368 0.0000114311 " stroke="#000000" stroke-width="1" stroke-opacity="1" stroke-miterlimit="4"/><path stroke-linecap="butt" transform="matrix(28.664111, 28.664111, -28.637822, 28.637822, 180.60537, 266.396023)" fill="none" stroke-linejoin="miter" d="M -0.0000242989 -0.000027755 L 8.196405 0.0000404459 " stroke="#000000" stroke-width="1" stroke-opacity="1" stroke-miterlimit="4"/><path stroke-linecap="butt" transform="matrix(-28.630756, 28.630756, -28.637822, -28.637822, 621.814604, 266.872039)" fill="none" stroke-linejoin="miter" d="M -0.0000479704 -0.0000149664 L 8.205998 -0.0000149664 " stroke="#000000" stroke-width="1" stroke-opacity="1" stroke-miterlimit="4"/><path stroke-linecap="butt" transform="matrix(28.596034, -28.596034, 28.637822, 28.637822, 194.924511, 552.650152)" fill="none" stroke-linejoin="miter" d="M 0.0000521865 -0.00000776492 L 5.155925 -0.00000776492 " stroke="#000000" stroke-width="1" stroke-opacity="1" stroke-miterlimit="4"/><path stroke-linecap="butt" transform="matrix(-28.596034, -28.596034, 28.637822, -28.637822, 614.544525, 552.650152)" fill="none" stroke-linejoin="miter" d="M 0.000057185 0.00000277367 L 5.15593 0.00000277367 " stroke="#000000" stroke-width="1" stroke-opacity="1" stroke-miterlimit="4"/></svg>