<svg xmlns="http://www.w3.org/2000/svg" xmlns:xlink="http://www.w3.org/1999/xlink" width="1080" zoomAndPan="magnify" viewBox="0 0 810 809.999993" height="1080" preserveAspectRatio="xMidYMid meet" version="1.0"><defs><g/><clipPath id="557b701949"><path d="M 0 0 L 809.351562 0 L 809.351562 809.351562 L 0 809.351562 Z M 0 0 " clip-rule="nonzero"/></clipPath></defs><g clip-path="url(#557b701949)"><path fill="#000000" d="M 404.675781 809.351562 C 296.632812 809.351562 194.898438 767.300781 118.554688 690.796875 C 42.050781 614.453125 0 512.71875 0 404.675781 C 0 296.632812 42.050781 194.898438 118.554688 118.554688 C 194.898438 42.054688 296.632812 0 404.675781 0 C 512.71875 0 614.453125 42.054688 690.796875 118.554688 C 767.300781 195.058594 809.351562 296.632812 809.351562 404.675781 C 809.351562 512.71875 767.300781 614.453125 690.796875 690.796875 C 614.453125 767.300781 512.71875 809.351562 404.675781 809.351562 Z M 404.675781 24.261719 C 303.101562 24.261719 207.515625 63.886719 135.699219 135.699219 C 63.886719 207.515625 24.261719 303.101562 24.261719 404.675781 C 24.261719 506.25 63.886719 601.839844 135.699219 673.652344 C 207.515625 745.464844 303.101562 785.089844 404.675781 785.089844 C 506.25 785.089844 601.839844 745.464844 673.652344 673.652344 C 745.464844 601.839844 785.089844 506.25 785.089844 404.675781 C 785.089844 303.101562 745.464844 207.515625 673.652344 135.699219 C 601.839844 63.886719 506.25 24.261719 404.675781 24.261719 Z M 404.675781 24.261719 " fill-opacity="1" fill-rule="nonzero"/></g><path stroke-linecap="butt" transform="matrix(0.000000000000002478, 40.467005, -40.499998, 0.00000000000000248, 197.834758, 247.734617)" fill="none" stroke-linejoin="miter" d="M -0.00000598356 -0.0000291149 L 8.525458 -0.0000291149 " stroke="#000000" stroke-width="1" stroke-opacity="1" stroke-miterlimit="4"/><path stroke-linecap="butt" transform="matrix(0.000000000000002478, 40.467005, -40.499998, 0.00000000000000248, 611.414085, 247.734617)" fill="none" stroke-linejoin="miter" d="M -0.00000598356 0.00000054915 L 8.525458 0.00000054915 " stroke="#000000" stroke-width="1" stroke-opacity="1" stroke-miterlimit="4"/><path stroke-linecap="butt" transform="matrix(40.470778, 0, 0, 40.499998, 177.585331, 239.483914)" fill="none" stroke-linejoin="miter" d="M 0.0000149968 0.000011374 L 11.23034 0.000011374 " stroke="#000000" stroke-width="1" stroke-opacity="1" stroke-miterlimit="4"/><path stroke-linecap="butt" transform="matrix(40.467867, 0, 0, 40.499998, 197.83533, 324.23391)" fill="none" stroke-linejoin="miter" d="M 0.0000150231 0.0000114793 L 10.211821 0.0000114793 " stroke="#000000" stroke-width="1" stroke-opacity="1" stroke-miterlimit="4"/><path stroke-linecap="butt" transform="matrix(40.470778, 0, 0, 40.499998, 177.585331, 611.766325)" fill="none" stroke-linejoin="miter" d="M 0.0000149968 -0.0000172895 L 11.23034 -0.0000172895 " stroke="#000000" stroke-width="1" stroke-opacity="1" stroke-miterlimit="4"/><path stroke-linecap="round" transform="matrix(9.74399, 0.000000000000014567, -0.000000000000014576, 9.75, 249.585341, 278.933912)" fill="none" stroke-linejoin="miter" d="M 0.499969 -0.0000326787 L 5.349913 -0.0000326787 " stroke="#000000" stroke-width="1" stroke-opacity="1" stroke-miterlimit="4"/><g fill="#000000" fill-opacity="1"><g transform="translate(290.238269, 490.800463)"><g><path d="M 25.15625 0 L 12.828125 0 L 1.703125 -46.859375 L 12.609375 -46.859375 L 19.5 -15.171875 L 20.390625 -15.171875 L 29.3125 -46.859375 L 39.5 -46.859375 L 48.71875 -15.171875 L 49.625 -15.171875 L 56.25 -46.859375 L 66.859375 -46.859375 L 55.859375 0 L 43.5 0 L 34.625 -31.90625 L 33.734375 -31.90625 Z M 25.15625 0 "/></g></g></g><g fill="#000000" fill-opacity="1"><g transform="translate(358.750038, 490.800463)"><g><path d="M 25.15625 0 L 12.828125 0 L 1.703125 -46.859375 L 12.609375 -46.859375 L 19.5 -15.171875 L 20.390625 -15.171875 L 29.3125 -46.859375 L 39.5 -46.859375 L 48.71875 -15.171875 L 49.625 -15.171875 L 56.25 -46.859375 L 66.859375 -46.859375 L 55.859375 0 L 43.5 0 L 34.625 -31.90625 L 33.734375 -31.90625 Z M 25.15625 0 "/></g></g></g><g fill="#000000" fill-opacity="1"><g transform="translate(427.261807, 490.800463)"><g><path d="M 25.15625 0 L 12.828125 0 L 1.703125 -46.859375 L 12.609375 -46.859375 L 19.5 -15.171875 L 20.390625 -15.171875 L 29.3125 -46.859375 L 39.5 -46.859375 L 48.71875 -15.171875 L 49.625 -15.171875 L 56.25 -46.859375 L 66.859375 -46.859375 L 55.859375 0 L 43.5 0 L 34.625 -31.90625 L 33.734375 -31.90625 Z M 25.15625 0 "/></g></g></g><g fill="#000000" fill-opacity="1"><g transform="translate(495.773576, 490.800463)"><g><path d="M 11.984375 0.375 C 10.484375 0.375 9.15625 0.0703125 8 -0.53125 C 6.851562 -1.132812 5.972656 -1.972656 5.359375 -3.046875 C 4.753906 -4.128906 4.453125 -5.351562 4.453125 -6.71875 C 4.453125 -8.070312 4.753906 -9.285156 5.359375 -10.359375 C 5.972656 -11.441406 6.851562 -12.289062 8 -12.90625 C 9.15625 -13.53125 10.484375 -13.84375 11.984375 -13.84375 C 13.515625 -13.84375 14.851562 -13.535156 16 -12.921875 C 17.144531 -12.316406 18.019531 -11.476562 18.625 -10.40625 C 19.238281 -9.332031 19.546875 -8.113281 19.546875 -6.75 C 19.546875 -4.6875 18.859375 -2.984375 17.484375 -1.640625 C 16.109375 -0.296875 14.273438 0.375 11.984375 0.375 Z M 11.984375 0.375 "/></g></g></g></svg>